<?xml version="1.0" encoding="UTF-8"?>
<svg width="80px" height="80px" viewBox="0 0 80 80" version="1.1" xmlns="http://www.w3.org/2000/svg" xmlns:xlink="http://www.w3.org/1999/xlink">
    <!-- Generator: Sketch 40.3 (33839) - http://www.bohemiancoding.com/sketch -->
    <title>Group</title>
    <desc>Created with Sketch.</desc>
    <defs></defs>
    <g id="Page-1" stroke="none" stroke-width="1" fill="none" fill-rule="evenodd">
        <g id="Group">
            <rect id="Rectangle" fill="#EF5138" x="0" y="0" width="80" height="80"></rect>
            <path d="M57.2607961,46.0497651 L57.2607961,46.0497651 C57.2607961,45.7981977 57.3877523,45.5466303 57.3877523,45.4208466 C59.9268783,35.609718 53.8329761,24.0376176 43.5495161,18 C47.9929865,24.0376176 50.0242872,31.3330722 48.2468991,37.7480409 C48.1199428,38.3769594 47.8660302,38.8800942 47.7390739,39.383229 C47.4851613,39.2574453 47.2312487,39.1316616 46.8503798,38.8800942 C46.8503798,38.8800942 36.6938762,32.5909092 25.6486785,21.6477273 C25.3947659,21.3961599 31.4886681,30.4525863 38.5982206,37.7480409 C35.2973569,35.8612854 26.0295473,29.320533 20.316514,24.0376176 C21.0782518,25.1696709 21.8399896,26.3017242 22.85564,27.4337775 C27.6799792,33.5971788 34.027794,41.1442008 41.6451717,46.930251 C36.3130073,50.2006272 28.6956296,50.4521946 21.2052081,46.930251 C19.3008637,46.0497651 17.6504318,45.0434955 16,43.7856585 C19.1739074,48.8170065 24.1252029,53.219436 30.0921488,55.73511 C37.2017014,58.7539188 44.3112539,58.5023514 49.516462,55.73511 L49.516462,55.73511 C51.674719,54.3514893 57.5147086,52.2131664 60.4347034,57.8734329 C60.9425286,59.0054862 62.3390479,52.3389501 57.2607961,46.0497651 L57.2607961,46.0497651 Z" id="Shape" fill="#FFFFFF"></path>
        </g>
    </g>
</svg>
